<?xml version="1.0" encoding="utf-8"?>
<!-- Generator: Adobe Illustrator 26.3.1, SVG Export Plug-In . SVG Version: 6.00 Build 0)  -->
<svg version="1.1" id="Layer_1" xmlns="http://www.w3.org/2000/svg" xmlns:xlink="http://www.w3.org/1999/xlink" x="0px" y="0px"
	 viewBox="0 0 147.73 60.15" style="enable-background:new 0 0 147.73 60.15;" xml:space="preserve">
<style type="text/css">
	.st0{fill:#001689;}
	.st1{fill:#FFFFFF;}
</style>
<g>
	<g>
		<g>
			<g>
				<path class="st0" d="M39.55,51.64h-0.64v-4.61h0.99l1.33,3.56l1.34-3.56h0.98v4.61h-0.63l0.04-4l-1.5,4h-0.47l-1.49-4
					L39.55,51.64z"/>
				<path class="st0" d="M52.29,51.64h-0.6v-0.39c-0.12,0.16-0.26,0.28-0.42,0.35c-0.15,0.08-0.33,0.12-0.52,0.12
					c-0.44,0-0.78-0.14-1.02-0.41s-0.36-0.65-0.36-1.15v-2h0.63v1.82c0,0.38,0.07,0.66,0.2,0.84c0.13,0.19,0.33,0.28,0.6,0.28
					c0.16,0,0.31-0.04,0.44-0.12c0.13-0.08,0.23-0.19,0.31-0.33c0.05-0.09,0.08-0.19,0.1-0.32c0.02-0.12,0.03-0.32,0.03-0.59v-1.6
					h0.62V51.64z M49.97,47.53v-0.66h0.58v0.66H49.97z M51.1,47.53v-0.66h0.58v0.66H51.1z"/>
				<path class="st0" d="M58.73,51.64H58.1v-4.61h0.63v1.52c0.1-0.15,0.23-0.26,0.39-0.34s0.35-0.11,0.57-0.11
					c0.42,0,0.75,0.13,0.98,0.4s0.35,0.65,0.35,1.14v2H60.4v-1.79c0-0.39-0.07-0.67-0.2-0.86c-0.13-0.19-0.33-0.28-0.6-0.28
					c-0.17,0-0.31,0.04-0.44,0.11c-0.13,0.08-0.23,0.19-0.3,0.33c-0.05,0.09-0.08,0.19-0.1,0.32c-0.02,0.12-0.03,0.32-0.03,0.6
					V51.64z"/>
				<path class="st0" d="M67.28,50.13c0.05,0.29,0.18,0.53,0.39,0.71c0.21,0.18,0.46,0.27,0.75,0.27c0.21,0,0.4-0.05,0.57-0.15
					c0.17-0.1,0.3-0.24,0.41-0.42h0.71c-0.16,0.39-0.38,0.68-0.67,0.89s-0.62,0.31-1,0.31c-0.26,0-0.49-0.05-0.71-0.14
					c-0.21-0.09-0.41-0.23-0.58-0.41c-0.16-0.17-0.29-0.37-0.38-0.6c-0.09-0.23-0.14-0.46-0.14-0.69c0-0.24,0.04-0.47,0.12-0.69
					c0.08-0.21,0.21-0.41,0.37-0.58c0.17-0.19,0.37-0.33,0.58-0.43c0.22-0.1,0.46-0.14,0.71-0.14c0.31,0,0.59,0.07,0.85,0.21
					c0.26,0.14,0.48,0.34,0.65,0.6c0.1,0.16,0.18,0.33,0.22,0.52c0.05,0.19,0.07,0.4,0.07,0.65v0.1H67.28z M69.53,49.57
					c-0.08-0.29-0.21-0.51-0.41-0.67s-0.42-0.24-0.69-0.24c-0.27,0-0.51,0.08-0.71,0.24c-0.2,0.16-0.34,0.38-0.42,0.66H69.53z"/>
				<path class="st0" d="M76.44,51.64h-0.63v-3.48h0.6v0.4c0.13-0.16,0.27-0.27,0.43-0.34s0.34-0.11,0.54-0.11
					c0.46,0,0.8,0.13,1.05,0.4c0.24,0.27,0.37,0.65,0.37,1.15v1.98h-0.63v-1.85c0-0.37-0.07-0.64-0.21-0.82
					c-0.14-0.18-0.35-0.27-0.64-0.27c-0.31,0-0.54,0.1-0.68,0.31s-0.21,0.56-0.21,1.04V51.64z"/>
				<path class="st0" d="M87.4,51.64v-0.43c-0.16,0.17-0.34,0.29-0.54,0.38c-0.2,0.09-0.41,0.13-0.63,0.13
					c-0.52,0-0.96-0.17-1.3-0.52c-0.35-0.35-0.52-0.79-0.52-1.31c0-0.24,0.04-0.48,0.13-0.7c0.09-0.22,0.21-0.41,0.37-0.58
					c0.17-0.18,0.37-0.32,0.57-0.41c0.21-0.09,0.44-0.13,0.71-0.13c0.24,0,0.46,0.04,0.66,0.13c0.2,0.08,0.39,0.21,0.55,0.38v-1.55
					h0.63v4.61H87.4z M85.06,49.88c0,0.35,0.12,0.65,0.35,0.89s0.52,0.36,0.86,0.36c0.31,0,0.58-0.12,0.82-0.36
					c0.24-0.24,0.35-0.52,0.35-0.84c0-0.34-0.12-0.63-0.35-0.88s-0.51-0.37-0.83-0.37c-0.33,0-0.61,0.12-0.84,0.35
					S85.06,49.54,85.06,49.88z"/>
				<path class="st0" d="M94.44,47.75h-0.62v-0.72h0.62V47.75z M93.82,51.64v-3.48h0.62v3.48H93.82z"/>
				<path class="st0" d="M100,50.51h0.59c0,0.18,0.05,0.33,0.15,0.45c0.1,0.12,0.23,0.18,0.38,0.18c0.15,0,0.27-0.04,0.36-0.13
					c0.09-0.09,0.14-0.2,0.14-0.34c0-0.12-0.03-0.23-0.1-0.31c-0.07-0.08-0.17-0.16-0.32-0.21c-0.05-0.02-0.12-0.05-0.21-0.08
					c-0.25-0.09-0.4-0.17-0.47-0.22c-0.12-0.1-0.22-0.21-0.28-0.34c-0.06-0.13-0.09-0.27-0.09-0.44c0-0.28,0.1-0.52,0.3-0.72
					s0.44-0.3,0.72-0.3c0.3,0,0.53,0.09,0.71,0.26c0.17,0.17,0.27,0.42,0.29,0.73h-0.6c-0.01-0.13-0.05-0.23-0.13-0.3
					c-0.07-0.07-0.17-0.11-0.3-0.11c-0.11,0-0.21,0.04-0.28,0.12s-0.11,0.17-0.11,0.29c0,0.19,0.17,0.35,0.51,0.48
					c0.1,0.04,0.17,0.06,0.23,0.09c0.27,0.11,0.46,0.24,0.57,0.4c0.11,0.16,0.17,0.37,0.17,0.64c0,0.31-0.11,0.57-0.32,0.78
					c-0.21,0.21-0.48,0.31-0.8,0.31c-0.32,0-0.58-0.11-0.78-0.33C100.13,51.19,100.02,50.89,100,50.51z"/>
				<path class="st0" d="M107.82,51.64v-4.61h0.62v4.61H107.82z"/>
				<path class="st0" d="M114.86,47.75h-0.62v-0.72h0.62V47.75z M114.24,51.64v-3.48h0.62v3.48H114.24z"/>
				<path class="st0" d="M120.66,51.64v-4.61h0.62v2.74l1.24-1.61h0.73l-1.28,1.65l1.51,1.83h-0.8l-1.4-1.77v1.77H120.66z"/>
			</g>
		</g>
	</g>
	<g>
		<path class="st0" d="M64.25,18.06c0,2.53-1.17,4.96-4.09,6.32c3.68,1.17,5.03,5.24,5.03,7.3c0,7.3-5.26,9.64-11.77,9.64
			c-4.99,0-9.93,0-14.91,0V8.57c4.94,0,9.93,0,14.91,0C59.62,8.57,64.25,11.47,64.25,18.06z M44.35,21.71h9.07
			c3.73,0,4.94-1.64,4.94-3.51c0-1.5-1.17-4.02-4.94-4.02h-9.07V21.71z M44.35,35.56h9.07c2.43,0,5.88-0.84,5.88-3.93
			c0-2.95-3.46-4.49-5.88-4.49h-9.07V35.56z"/>
		<path class="st0" d="M74.93,11.75c0,4.44-6.47,4.44-6.47,0C68.47,7.3,74.93,7.3,74.93,11.75z M68.96,18.16v23.16h5.48V18.16H68.96
			z"/>
		<path class="st0" d="M84.73,8.61v18.9l7.46-9.26h6.56v0.33L89.71,29.1L100,40.89v0.42h-6.6l-8.67-10.43v10.43h-5.48V8.61H84.73z"
			/>
		<path class="st0" d="M123.58,29.81c0,6.64-4.36,12.02-11.54,12.02s-11.5-5.38-11.5-12.02c0-6.6,4.4-12.02,11.46-12.02
			S123.58,23.21,123.58,29.81z M106.02,29.81c0,3.51,2.02,6.78,6.02,6.78s6.02-3.27,6.02-6.78c0-3.46-2.34-6.83-6.02-6.83
			C108.08,22.98,106.02,26.34,106.02,29.81z"/>
	</g>
	<rect x="37.95" y="28.66" class="st1" width="88.17" height="1.34"/>
	<polygon class="st0" points="24.86,40.77 35.48,29.34 24.86,17.9 	"/>
	<polygon class="st0" points="21.61,40.77 32.23,29.34 21.61,17.9 	"/>
</g>
</svg>
